<svg width="19" height="19" viewBox="0 0 19 19" fill="none" xmlns="http://www.w3.org/2000/svg">
<path d="M13 4C13 3.73478 13.1054 3.48043 13.2929 3.29289C13.4804 3.10536 13.7348 3 14 3C14.2652 3 14.5196 3.10536 14.7071 3.29289C14.8946 3.48043 15 3.73478 15 4C15 4.26522 14.8946 4.51957 14.7071 4.70711C14.5196 4.89464 14.2652 5 14 5C13.7348 5 13.4804 4.89464 13.2929 4.70711C13.1054 4.51957 13 4.26522 13 4Z" fill="#CEAAD0"/>
<path fill-rule="evenodd" clip-rule="evenodd" d="M9 4.25C7.74022 4.25 6.53204 4.75045 5.64124 5.64124C4.75045 6.53204 4.25 7.74022 4.25 9C4.25 10.2598 4.75045 11.468 5.64124 12.3588C6.53204 13.2496 7.74022 13.75 9 13.75C10.2598 13.75 11.468 13.2496 12.3588 12.3588C13.2496 11.468 13.75 10.2598 13.75 9C13.75 7.74022 13.2496 6.53204 12.3588 5.64124C11.468 4.75045 10.2598 4.25 9 4.25ZM5.75 9C5.75 8.13805 6.09241 7.3114 6.7019 6.7019C7.3114 6.09241 8.13805 5.75 9 5.75C9.86195 5.75 10.6886 6.09241 11.2981 6.7019C11.9076 7.3114 12.25 8.13805 12.25 9C12.25 9.86195 11.9076 10.6886 11.2981 11.2981C10.6886 11.9076 9.86195 12.25 9 12.25C8.13805 12.25 7.3114 11.9076 6.7019 11.2981C6.09241 10.6886 5.75 9.86195 5.75 9Z" fill="#CEAAD0"/>
<path fill-rule="evenodd" clip-rule="evenodd" d="M14.6999 0.290553C11.2053 -0.0968511 7.67858 -0.0968511 4.18395 0.290553C2.17195 0.515553 0.54695 2.10055 0.31095 4.12255C-0.10365 7.66714 -0.10365 11.248 0.31095 14.7926C0.54695 16.8146 2.17095 18.3996 4.18395 18.6246C7.6786 19.0116 11.2053 19.0116 14.6999 18.6246C16.7119 18.3996 18.337 16.8146 18.573 14.7926C18.9876 11.248 18.9876 7.66713 18.573 4.12255C18.337 2.10055 16.7129 0.515553 14.6999 0.290553ZM4.34995 1.78055C7.73425 1.40543 11.1496 1.40543 14.5339 1.78055C15.8639 1.93055 16.9289 2.97955 17.084 4.29755C17.4849 7.72587 17.4849 11.1892 17.084 14.6176C17.0038 15.2626 16.7085 15.8618 16.2458 16.3183C15.7831 16.7748 15.18 17.062 14.5339 17.1336C11.1496 17.5087 7.73425 17.5087 4.34995 17.1336C3.70389 17.062 3.1008 16.7748 2.6381 16.3183C2.17541 15.8618 1.88012 15.2626 1.79995 14.6176C1.399 11.1892 1.399 7.72587 1.79995 4.29755C1.88012 3.65251 2.17541 3.05333 2.6381 2.5968C3.1008 2.14028 3.70389 1.85206 4.34995 1.78055Z" fill="#CEAAD0"/>
</svg>
